<svg width="44" height="63" viewBox="0 0 44 63" fill="none" xmlns="http://www.w3.org/2000/svg">
<path d="M2.03087 62.132H0.537468L1.77868 36.2727H3.22874C4.79788 44.0254 7.65903 50.2084 11.8122 54.8218C15.9653 59.4352 20.6811 61.7428 25.9594 61.7446C29.6975 61.7446 32.7938 60.66 35.2482 58.4909C37.7026 56.3217 38.9285 53.5593 38.9259 50.2035C38.9259 46.7607 37.7201 43.9406 35.3086 41.7431C32.8971 39.5455 27.6691 37.0711 19.6246 34.3197C12.3183 31.8346 7.35256 29.3051 4.72739 26.7313C2.10223 24.1574 0.788776 20.8167 0.787025 16.7092C0.787025 12.0523 2.3137 8.10276 5.36705 4.86059C8.4204 1.61842 12.1598 -0.00177362 16.5853 1.45697e-06C18.925 1.45697e-06 21.0795 0.412262 23.0488 1.23678C25.0181 2.0613 26.9585 3.36998 28.87 5.1628C29.1844 5.45303 29.6126 5.88703 30.1546 6.46482C31.4681 7.85292 32.581 8.54698 33.4934 8.54698C34.6317 8.54698 35.545 7.9612 36.2333 6.78966C36.9215 5.61811 37.4635 3.65843 37.8593 0.910614H39.1019V24.6078H37.8593C35.6624 17.0008 32.7517 11.2229 29.1275 7.27425C25.5032 3.3256 21.2936 1.34906 16.4986 1.34462C13.1309 1.34462 10.37 2.32845 8.21593 4.29612C6.06187 6.26379 4.98439 8.76575 4.98352 11.802C4.98003 12.9377 5.16109 14.0662 5.51941 15.1423C5.9044 16.2694 6.44477 17.3357 7.12445 18.3094C9.15155 21.1726 14.0315 23.9062 21.7642 26.5103C22.5628 26.7712 23.1758 26.9736 23.6031 27.1173C24.0304 27.2611 24.7007 27.4781 25.614 27.7684C31.5788 29.7067 35.8169 31.7037 38.3282 33.7592C40.0031 35.1362 41.3188 36.9091 42.1596 38.922C43.0291 40.9767 43.4643 43.2621 43.4652 45.7782C43.4652 50.6952 41.8452 54.7952 38.6054 58.0782C35.3655 61.3612 31.2916 63.0031 26.3837 63.004C23.5816 63.004 21.0861 62.5558 18.897 61.6594C16.7079 60.763 14.3817 59.2297 11.9186 57.0597L11.8332 56.9732C9.55041 54.9478 7.85254 53.9356 6.73961 53.9365C5.65469 53.9365 4.69149 54.6523 3.85001 56.0839C3.00852 57.5155 2.40214 59.5315 2.03087 62.132Z" fill="white"/>
</svg>
